<svg width="749" height="263" xmlns="http://www.w3.org/2000/svg" xmlns:xlink="http://www.w3.org/1999/xlink" overflow="hidden"><defs><clipPath id="clip0"><path d="M196 55 945 55 945 318 196 318Z" fill-rule="evenodd" clip-rule="evenodd"/></clipPath></defs><g clip-path="url(#clip0)" transform="translate(-196 -55)"><path d="M198.697 244.476C199.398 240.127 201.221 234.516 207.112 227.642 213.003 220.768 221.559 213.895 234.043 203.233 246.526 192.572 271.633 171.53 282.012 163.674 292.391 155.818 290.708 160.448 296.319 156.099 301.929 151.75 305.015 143.474 315.675 137.582 326.335 131.69 342.465 125.798 360.278 120.748 378.091 115.698 402.076 110.227 422.554 107.281 443.032 104.336 467.999 106.159 483.147 103.073 498.295 99.9868 504.186 93.2535 513.443 88.7645 522.7 84.2755 527.89 80.6282 538.69 76.1392 549.49 71.6502 568.987 65.057 578.244 61.8306 587.501 58.6042 589.745 57.2013 594.234 56.7805 598.722 56.3598 605.314 55.9389 605.174 59.3056 605.034 62.6723 593.392 76.9809 593.392 76.9809 589.745 82.4519 585.818 87.7825 583.293 92.1312 580.769 96.4799 577.683 99.566 578.244 103.073 578.805 106.58 583.854 108.544 586.66 113.173 589.465 117.803 590.868 127.201 595.075 130.849 599.283 134.496 611.907 135.057 611.907 135.057L643.045 143.474 679.232 152.732C692.136 156.099 707.845 159.746 720.469 163.674 733.093 167.602 745.436 173.774 754.973 176.299 764.511 178.824 767.176 178.684 777.696 178.824 788.215 178.965 804.766 178.824 818.091 177.141 831.416 175.458 843.057 171.109 857.645 168.724 872.232 166.34 893.552 163.394 905.614 162.833 917.677 162.271 923.708 163.814 930.02 165.358 936.331 166.901 943.064 169.285 943.485 172.091 943.905 174.897 935.63 179.386 932.544 182.191 929.458 184.997 928.196 186.68 924.97 188.925 921.744 191.169 916.274 193.273 913.188 195.658 910.102 198.043 909.401 200.989 906.456 203.233 903.51 205.478 899.022 207.161 895.515 209.125 892.009 211.089 888.923 212.913 885.416 215.017 881.91 217.121 877.281 220.207 874.476 221.75 871.671 223.293 867.042 222.171 868.585 224.275 870.128 226.38 879.666 230.728 883.733 234.376 887.801 238.023 888.923 241.81 892.991 246.159 897.058 250.508 905.193 255.137 908.139 260.468 911.084 265.798 911.926 273.514 910.663 278.143 909.401 282.772 906.035 286.42 900.565 288.243 895.094 290.067 887.24 291.61 877.842 289.085 868.445 286.56 856.382 279.406 844.18 273.093 831.977 266.78 816.969 256.54 804.626 251.209 792.283 245.879 783.026 243.915 770.122 241.109 757.218 238.303 734.074 234.656 727.202 234.376 720.329 234.095 728.183 237.181 728.885 239.426 729.586 241.67 728.464 244.616 731.409 247.842 734.355 251.069 743.051 254.436 746.558 258.784 750.064 263.133 751.888 269.726 752.449 273.935 753.01 278.143 753.15 280.949 749.924 284.035 746.698 287.121 739.685 292.311 733.093 292.452 726.5 292.592 718.505 288.804 710.37 284.877 702.235 280.949 694.38 275.337 684.282 268.885 674.183 262.432 657.071 249.105 649.777 246.159 642.484 243.213 645.008 250.087 640.52 251.209 636.032 252.332 634.769 253.313 622.847 252.893 610.925 252.472 576.561 248.684 568.987 248.684 561.413 248.684 575.298 249.666 577.402 252.893 579.506 256.119 582.031 260.748 581.61 268.043 581.19 275.337 577.122 288.664 574.878 296.66 572.634 304.656 573.054 314.055 568.145 316.019 563.236 317.983 553.277 313.634 545.423 308.444 537.568 303.253 528.872 293.714 521.017 284.877 513.163 276.039 505.168 259.907 498.295 255.418 491.422 250.929 487.355 257.241 479.78 257.943 472.206 258.644 467.578 259.345 452.85 259.626 438.123 259.907 401.795 259.205 391.416 259.626 381.036 260.047 392.678 257.662 390.574 262.151 388.47 266.64 381.317 281.51 378.792 286.56 376.268 291.61 375.707 289.927 375.426 292.452 375.145 294.977 380.756 301.289 377.109 301.71 373.462 302.131 360.278 297.361 353.545 294.977 346.813 292.592 340.641 291.891 336.714 287.402 332.787 282.913 331.524 273.233 329.981 268.043 328.438 262.853 328.018 257.662 327.457 256.259 326.896 254.857 329.561 258.925 326.615 259.626 323.67 260.327 314.553 260.468 309.784 260.468 305.015 260.468 304.173 259.486 298.002 259.626 291.83 259.766 281.03 261.029 272.755 261.309 264.479 261.59 249.611 260.047 248.349 261.309 247.087 262.572 266.022 269.025 265.181 268.885 264.339 268.744 249.892 261.73 243.3 260.468 236.707 259.205 230.957 262.291 225.627 261.309 220.297 260.327 212.302 254.015 211.32 254.576 210.338 255.137 221.138 264.816 219.736 264.676 218.333 264.536 206.692 256.68 202.904 253.734 199.117 250.788 197.995 248.824 198.697 244.476Z" stroke="#000000" stroke-miterlimit="8" fill="#FFFFFF" fill-rule="evenodd"/></g></svg>