<svg width="754" height="221" xmlns="http://www.w3.org/2000/svg" xmlns:xlink="http://www.w3.org/1999/xlink" overflow="hidden"><defs><clipPath id="clip0"><path d="M280 67 1034 67 1034 288 280 288Z" fill-rule="evenodd" clip-rule="evenodd"/></clipPath></defs><g clip-path="url(#clip0)" transform="translate(-280 -67)"><path d="M290.512 180.632C289.951 178.812 288.129 179.372 294.718 177.272 301.308 175.173 315.188 173.214 330.05 168.035 344.912 162.857 364.821 153.199 383.889 146.201 402.957 139.203 423.567 131.225 444.457 126.047 465.348 120.868 483.995 117.649 509.232 115.13 534.469 112.611 568.539 111.211 595.879 110.931 623.219 110.651 647.614 112.191 673.272 113.45 698.929 114.71 734.261 117.789 749.824 118.489 765.386 119.189 759.498 121.288 766.648 117.649 773.799 114.01 782.351 103.793 792.726 96.6552 803.101 89.5172 819.646 79.3001 828.899 74.8214 838.153 70.3426 840.536 68.803 848.247 69.7827 855.959 70.7625 868.157 76.5009 875.167 80.6997 882.177 84.8985 886.523 87.5577 890.309 94.9757 894.095 102.394 898.721 116.67 897.88 125.207 897.039 133.745 890.589 141.582 885.262 146.201 879.934 150.82 865.493 151.24 865.913 152.919 866.334 154.599 881.476 155.439 887.785 156.278 894.094 157.118 896.899 159.078 903.769 157.958 910.639 156.838 920.173 153.759 929.006 149.56 937.838 145.361 948.634 137.104 956.766 132.765 964.898 128.426 967.702 126.467 977.797 123.528 987.892 120.588 1008.92 115.27 1017.33 115.13 1025.75 114.99 1026.31 117.929 1028.27 122.688 1030.23 127.447 1031.36 136.544 1029.11 143.682 1026.87 150.82 1020.28 158.798 1014.81 165.516 1009.34 172.234 998.687 179.652 996.304 183.991 993.92 188.329 997.566 188.609 1000.51 191.548 1003.45 194.488 1010.89 199.526 1013.97 201.626 1017.05 203.725 1017.9 202.885 1019.02 204.145 1020.14 205.405 1019.3 207.504 1020.7 209.184 1022.1 210.863 1026.87 212.682 1027.43 214.222 1027.99 215.762 1023.22 216.042 1024.06 218.421 1024.91 220.8 1032.2 225.839 1032.48 228.498 1032.76 231.157 1030.51 232.417 1025.75 234.376 1020.98 236.336 1014.11 240.255 1003.88 240.255 993.64 240.255 977.937 238.715 964.337 234.376 950.737 230.038 932.651 219.401 922.276 214.222 911.901 209.043 909.096 205.545 902.086 203.305 895.076 201.066 887.365 200.366 880.214 200.786 873.064 201.206 859.885 204.705 859.184 205.824 858.482 206.944 870.961 207.644 876.008 207.504 881.055 207.364 885.822 202.325 889.468 204.985 893.113 207.644 897.039 218.001 897.88 223.459 898.721 228.918 898.721 234.236 894.515 237.735 890.309 241.234 881.476 243.894 872.643 244.454 863.81 245.013 851.052 242.634 841.518 241.094 831.984 239.555 824.413 238.575 815.44 235.216 806.466 231.857 787.679 220.94 787.679 220.94 782.491 219.121 789.221 223.879 784.314 224.299 779.407 224.719 765.667 223.599 758.236 223.459 750.805 223.319 739.729 223.459 739.729 223.459 732.578 223.459 719.119 222.48 715.333 223.459 711.548 224.439 718.698 226.819 717.016 229.338 715.333 231.857 711.267 237.595 705.238 238.575 699.21 239.555 691.078 237.316 680.843 235.216 670.608 233.117 652.241 227.098 643.829 225.979 635.416 224.859 638.781 227.518 630.369 228.498 621.957 229.478 606.254 231.157 593.355 231.857 580.456 232.557 568.398 232.977 552.976 232.697 537.553 232.417 508.25 229.618 500.82 230.178 493.389 230.737 506.288 233.397 508.391 236.056 510.494 238.715 513.298 240.115 513.438 246.133 513.578 252.151 511.615 265.448 509.232 272.166 506.849 278.884 504.605 287.281 499.137 286.442 493.669 285.602 483.995 277.344 476.424 267.127 468.853 256.91 460.441 232.697 453.711 225.139 446.981 217.581 442.214 222.2 436.045 221.78 429.876 221.36 429.175 223.04 416.697 222.62 404.218 222.2 377.159 220.8 361.175 219.261 345.192 217.721 331.452 215.482 320.796 213.382 310.141 211.283 303.551 210.163 297.242 206.664 290.933 203.165 284.624 195.467 282.941 192.388 281.259 189.309 284.764 187.909 287.147 188.189 289.531 188.469 297.242 194.068 297.242 194.068 299.485 194.488 300.607 190.709 300.607 190.709 300.747 189.729 299.485 189.169 298.083 188.189 296.681 187.21 291.073 182.451 290.512 180.632Z" stroke="#000000" stroke-miterlimit="8" fill="#FFFFFF" fill-rule="evenodd"/></g></svg>