<svg width="754" height="102" xmlns="http://www.w3.org/2000/svg" xmlns:xlink="http://www.w3.org/1999/xlink" overflow="hidden"><defs><clipPath id="clip0"><path d="M371 197 1125 197 1125 299 371 299Z" fill-rule="evenodd" clip-rule="evenodd"/></clipPath></defs><g clip-path="url(#clip0)" transform="translate(-371 -197)"><path d="M372.526 267.818C372.807 263.591 374.351 256.97 380.948 252.603 387.545 248.235 399.476 245.84 412.108 241.614 424.741 237.387 441.865 230.907 456.744 227.244 471.622 223.581 487.484 221.045 501.379 219.636 515.275 218.228 540.12 218.791 540.12 218.791 554.577 218.509 565.104 217.523 588.124 217.946 611.143 218.368 651.007 221.045 678.237 221.327 705.467 221.609 733.821 219.777 751.507 219.636 769.192 219.496 774.386 222.877 784.352 220.482 794.317 218.087 803.722 208.93 811.301 205.267 818.881 201.604 823.794 198.645 829.829 198.504 835.865 198.363 841.76 201.745 847.515 204.421 853.27 207.098 860.569 211.888 864.359 214.565 868.148 217.241 869.271 218.509 870.254 220.482 871.236 222.454 864.92 225.131 870.254 226.399 875.588 227.667 893.975 228.794 902.257 228.089 910.538 227.385 911.661 225.412 919.942 222.172 928.224 218.932 941.979 211.324 951.945 208.648 961.911 205.971 972.719 204.14 979.737 206.112 986.755 208.084 994.054 220.482 994.054 220.482 997.142 223.581 997.563 223.158 998.265 224.708 998.967 226.258 997.423 228.934 998.265 229.78 999.107 230.625 1000.23 228.934 1003.32 229.78 1006.41 230.625 1014.69 232.598 1016.79 234.852 1018.9 237.106 1014.83 242.318 1015.95 243.304 1017.07 244.291 1018.48 239.501 1023.53 240.768 1028.58 242.036 1039.25 246.545 1046.27 250.912 1053.29 255.279 1061.85 262.746 1065.64 266.972 1069.43 271.199 1066.06 276.13 1069.01 276.27 1071.96 276.411 1077.71 269.931 1083.32 267.818 1088.94 265.704 1096.8 263.028 1102.7 263.591 1108.59 264.155 1115.33 267.677 1118.7 271.199 1122.07 274.721 1124.73 280.919 1122.91 284.723 1121.08 288.527 1115.05 291.767 1107.75 294.021 1100.45 296.275 1088.94 297.684 1079.11 298.248 1069.29 298.811 1062.13 298.389 1048.8 297.402 1035.46 296.416 1011.6 293.74 999.107 292.331 986.615 290.922 981.983 290.922 973.842 288.95 965.701 286.977 955.314 281.483 950.261 280.497 945.208 279.511 947.453 283.174 943.523 283.033 939.593 282.892 934.681 280.497 926.68 279.652 918.679 278.806 895.519 277.961 895.519 277.961 881.904 277.257 862.814 275.566 844.988 275.425 827.162 275.284 788.562 277.116 788.562 277.116 767.648 277.679 744.629 278.806 719.504 278.806 694.379 278.806 663.499 277.961 637.812 277.116 612.126 276.27 583.632 273.312 565.385 273.735 547.138 274.157 538.435 278.524 528.329 279.652 518.223 280.779 516.679 281.06 504.748 280.497 492.817 279.933 468.956 276.834 456.744 276.27 444.532 275.707 436.391 275.848 431.479 277.116 426.566 278.384 432.04 282.751 427.268 283.878 422.495 285.005 410.845 284.864 402.845 283.878 394.844 282.892 384.317 280.215 379.263 277.961 374.21 275.707 372.245 272.044 372.526 267.818Z" stroke="#000000" stroke-miterlimit="8" fill="#FFFFFF" fill-rule="evenodd"/></g></svg>