<svg width="575" height="163" xmlns="http://www.w3.org/2000/svg" xmlns:xlink="http://www.w3.org/1999/xlink" overflow="hidden"><defs><clipPath id="clip0"><path d="M446 96 1021 96 1021 259 446 259Z" fill-rule="evenodd" clip-rule="evenodd"/></clipPath></defs><g clip-path="url(#clip0)" transform="translate(-446 -96)"><path d="M464.63 172.729C467.437 170.198 478.384 170.901 483.999 168.51 489.613 166.12 487.648 162.042 498.314 158.386 508.981 154.729 530.735 149.667 547.998 146.573 565.261 143.48 584.209 141.511 601.893 139.824 619.577 138.136 644.279 137.011 654.103 136.449 663.928 135.886 656.489 138.839 660.84 136.449 665.191 134.058 672.91 127.308 680.208 122.105 687.507 116.902 697.893 109.309 704.629 105.231 711.366 101.153 718.103 96.6528 720.629 97.6371 723.156 98.6215 719.647 107.34 719.787 111.137 719.928 114.934 721.05 117.043 721.471 120.418 721.892 123.793 720.489 127.168 722.313 131.386 724.138 135.605 725.12 142.777 732.419 145.73 739.717 148.683 766.103 149.105 766.103 149.105L812.418 153.323C826.453 154.729 836.98 155.714 850.313 157.542 863.646 159.37 880.629 165.557 892.418 164.292 904.208 163.026 908.979 156.276 921.05 149.948 933.12 143.62 964.839 126.324 964.839 126.324 977.33 119.574 989.4 112.402 995.997 109.449 1002.59 106.496 1005.96 105.231 1004.42 108.606 1002.87 111.98 992.628 122.387 986.734 129.699 980.839 137.011 974.242 145.73 969.049 152.48 963.856 159.229 958.944 167.104 955.576 170.198 952.207 173.292 950.804 169.917 948.839 171.042 946.874 172.167 944.348 174.417 943.786 176.948 943.225 179.479 942.804 183.979 945.471 186.229 948.137 188.479 952.769 187.072 959.786 190.447 966.804 193.822 977.891 197.9 987.576 206.478 997.26 215.056 1017.89 241.915 1017.89 241.915 1022.52 248.102 1020.56 244.306 1015.37 243.602 1010.17 242.899 996.558 241.071 986.734 237.696 976.909 234.321 971.856 229.681 956.418 223.353 940.979 217.025 907.857 203.385 894.102 199.728 880.348 196.072 882.173 199.166 873.892 201.416 865.611 203.666 852.418 209.291 844.418 213.228 836.418 217.166 830.804 221.243 825.892 225.04 820.98 228.837 819.015 235.165 814.945 236.009 810.875 236.853 805.12 231.79 801.471 230.103 797.822 228.415 796.84 226.306 793.05 225.884 789.261 225.462 784.91 225.603 778.734 227.572 772.559 229.54 764.278 235.165 755.998 237.696 747.717 240.227 729.05 242.759 729.05 242.759 720.77 244.306 709.682 245.431 706.314 246.977 702.945 248.524 711.226 251.196 708.84 252.04 706.454 252.883 701.963 251.055 691.998 252.04 682.033 253.024 663.226 257.102 649.051 257.946 634.875 258.79 621.402 258.79 606.945 257.102 592.489 255.415 577.472 251.337 562.314 247.821 547.156 244.306 528.349 239.524 515.998 236.009 503.648 232.493 495.367 229.54 488.209 226.728 481.051 223.915 479.788 223.212 473.051 219.134 466.314 215.056 449.893 205.213 447.788 202.26 445.683 199.307 455.648 201.978 460.42 201.416 465.191 200.853 475.297 201.838 476.42 198.885 477.542 195.932 469.262 187.916 467.156 183.698 465.051 179.479 461.823 175.26 464.63 172.729Z" stroke="#000000" stroke-miterlimit="8" fill="#FFFFFF" fill-rule="evenodd"/></g></svg>