<svg width="769" height="219" xmlns="http://www.w3.org/2000/svg" xmlns:xlink="http://www.w3.org/1999/xlink" overflow="hidden"><defs><clipPath id="clip0"><path d="M371 76 1140 76 1140 295 371 295Z" fill-rule="evenodd" clip-rule="evenodd"/></clipPath></defs><g clip-path="url(#clip0)" transform="translate(-371 -76)"><path d="M373.954 197.946C375.408 195.032 374.923 194.547 384.615 191.147 394.306 187.747 415.628 183.053 432.103 177.549 448.579 172.045 483.469 158.122 483.469 158.122 498.814 152.295 509.313 147.276 524.173 142.582 539.034 137.887 564.555 132.868 572.631 129.955 580.708 127.041 570.855 126.231 572.631 125.098 574.408 123.965 575.054 129.954 583.292 123.155 591.53 116.356 614.467 89.8071 622.059 84.303 629.651 78.799 625.289 91.1021 628.843 90.1309 632.396 89.1596 639.665 79.6084 643.38 78.4752 647.095 77.342 647.903 83.4935 651.133 83.3317 654.364 83.1698 658.241 77.6657 662.763 77.5038 667.286 77.342 678.27 82.3604 678.27 82.3604 682.47 83.6555 685.054 83.3317 687.961 85.2743 690.869 87.217 692 92.3972 695.715 94.0161 699.43 95.6349 706.053 94.3399 710.252 94.9874 714.452 95.635 717.359 95.7969 720.913 97.9014 724.467 100.006 727.212 105.348 731.574 107.614 735.935 109.881 743.365 109.719 747.08 111.5 750.795 113.28 752.411 115.385 753.864 118.299 755.318 121.213 755.803 128.983 755.803 128.983L755.803 128.983C754.834 130.117 748.857 134.325 749.988 135.782 751.119 137.239 758.549 138.372 762.587 137.725 766.625 137.078 770.502 134.649 774.217 131.897 777.932 129.145 777.609 127.041 784.878 121.213 792.146 115.385 809.753 102.11 817.829 96.9301 825.905 91.7497 828.651 91.7497 833.335 90.1309 838.02 88.512 844.966 86.7313 845.935 87.217 846.904 87.7026 837.697 92.5592 839.15 93.0448 840.604 93.5304 853.203 89.4833 854.657 90.1309 856.111 90.7785 846.258 95.7969 847.873 96.9301 849.488 98.0633 859.018 95.9588 864.349 96.9301 869.679 97.9014 876.302 100.815 879.855 102.758 883.409 104.701 882.278 106.805 885.67 108.586 889.062 110.366 897.623 111.662 900.208 113.442 902.792 115.223 899.077 117.489 901.177 119.27 903.276 121.051 907.961 122.184 912.807 124.127 917.652 126.069 925.406 127.526 930.251 130.926 935.097 134.325 937.359 139.506 941.881 144.524 946.404 149.543 954.804 156.18 957.388 161.036 959.972 165.893 958.68 171.073 957.388 173.663 956.096 176.254 947.373 175.93 949.635 176.577 951.896 177.225 963.041 178.034 970.956 177.549 978.871 177.063 985.009 177.387 997.123 173.663 1009.24 169.94 1027.81 160.713 1043.64 155.209 1059.47 149.704 1080.15 143.553 1092.1 140.639 1104.05 137.725 1107.93 136.592 1115.36 137.725 1122.79 138.858 1133.13 143.391 1136.68 147.438 1140.24 151.485 1137.65 156.827 1136.68 162.008 1135.71 167.188 1134.26 173.34 1130.87 178.52 1127.48 183.7 1121.98 189.366 1116.33 193.09 1110.68 196.813 1097.75 198.27 1096.95 200.86 1096.14 203.45 1107.77 206.364 1111.48 208.631 1115.2 210.897 1117.62 212.516 1119.24 214.458 1120.85 216.401 1119.88 217.211 1121.18 220.286 1122.47 223.362 1127.31 229.352 1126.99 232.913 1126.67 236.475 1124.24 239.551 1119.24 241.655 1114.23 243.76 1106.32 245.055 1096.95 245.54 1087.58 246.026 1070.46 245.217 1063.03 244.569 1055.6 243.922 1057.21 242.141 1052.37 241.655 1047.52 241.169 1040.57 242.303 1033.95 241.655 1027.33 241.007 1020.38 240.036 1012.63 237.77 1004.88 235.503 1004.23 228.704 987.432 228.057 970.633 227.409 923.79 232.428 911.837 233.885 899.884 235.341 914.422 234.208 915.714 236.798 917.006 239.389 919.429 246.673 919.591 249.426 919.752 252.178 916.683 250.721 916.683 253.311 916.683 255.901 926.536 263.024 919.591 264.966 912.645 266.909 888.416 265.614 875.009 264.966 861.603 264.319 848.034 261.567 839.15 261.081 830.266 260.596 828.651 263.509 821.706 262.052 814.76 260.596 805.553 252.663 797.477 252.339 789.4 252.016 784.877 257.682 773.248 260.11 761.618 262.538 742.557 265.938 727.697 266.909 712.837 267.88 690.384 264.157 684.085 265.938 677.785 267.718 690.546 273.384 689.9 277.593 689.254 281.802 689.415 288.763 680.208 291.192 671.001 293.62 646.126 294.429 634.658 292.163 623.189 289.897 619.636 282.936 611.398 277.593 603.16 272.251 588.946 262.214 585.231 260.11 581.515 258.005 594.276 264.643 589.107 264.966 583.938 265.29 565.524 263.833 554.217 262.052 542.911 260.272 533.381 256.387 521.266 254.282 509.152 252.178 496.068 252.339 481.53 249.426 466.993 246.512 449.871 240.684 434.042 236.798 418.212 232.913 396.567 229.352 386.553 226.114 376.538 222.876 376.215 219.639 373.954 217.372 371.692 215.106 372.661 213.973 372.985 212.516 373.308 211.059 375.407 210.735 375.892 208.631 376.377 206.526 372.5 200.86 373.954 197.946Z" stroke="#000000" stroke-miterlimit="8" fill="#FFFFFF" fill-rule="evenodd"/></g></svg>